HIERARCHY
ROOT root
{
	OFFSET	0	13.1	24.9
	CHANNELS 6  Xposition Yposition Zposition Xrotation Yrotation Zrotation
	JOINT spine_1
	{
		OFFSET	0	9.99999	0
		CHANNELS 3  Xrotation Yrotation Zrotation
		JOINT spine_2
		{
			OFFSET	0	112	-10
			CHANNELS 3  Xrotation Yrotation Zrotation
			JOINT spine_3
			{
				OFFSET	0	206.5	19.3
				CHANNELS 3  Xrotation Yrotation Zrotation
				JOINT spine_4
				{
					OFFSET	0	110.4	14.6
					CHANNELS 3  Xrotation Yrotation Zrotation
					JOINT neck_1
					{
						OFFSET	0	71.8	-50.3
						CHANNELS 3  Xrotation Yrotation Zrotation
						JOINT neck_2
						{
							OFFSET	0	86.2	-25.8
							CHANNELS 3  Xrotation Yrotation Zrotation
							JOINT head_ee
							{
								OFFSET	0	179.8	-8.7
								CHANNELS 3  Xrotation Yrotation Zrotation
								End Site
								{
									OFFSET	1	0	0
								}
							}
						}
					}
					JOINT left_clavicle
					{
						OFFSET	-43.2	22.4	-70.8
						CHANNELS 3  Xrotation Yrotation Zrotation
						JOINT left_shoulder
						{
							OFFSET	-93.9	-5.79999	48.7
							CHANNELS 3  Xrotation Yrotation Zrotation
							JOINT left_elbow
							{
								OFFSET	-291.4	-30.8	15.2
								CHANNELS 3  Xrotation Yrotation Zrotation
								JOINT left_lowarm_twist
								{
									OFFSET	-110.7	-3.89999	13.6
									CHANNELS 3  Xrotation Yrotation Zrotation
									JOINT left_hand
									{
										OFFSET	-110.7	-3.89999	13.6
										CHANNELS 3  Xrotation Yrotation Zrotation
										JOINT left_ee
										{
											OFFSET	-80.8	-5.10001	12.1
											CHANNELS 3  Xrotation Yrotation Zrotation
											End Site
											{
												OFFSET	1	0	0
											}
										}
									}
								}
							}
						}
					}
					JOINT right_clavicle
					{
						OFFSET	43.2	22.4	-70.8
						CHANNELS 3  Xrotation Yrotation Zrotation
						JOINT right_shoulder
						{
							OFFSET	93.9	-5.79999	48.7
							CHANNELS 3  Xrotation Yrotation Zrotation
							JOINT right_elbow
							{
								OFFSET	291.4	-30.8	15.2
								CHANNELS 3  Xrotation Yrotation Zrotation
								JOINT right_lowarm_twist
								{
									OFFSET	110.7	-3.89999	13.6
									CHANNELS 3  Xrotation Yrotation Zrotation
									JOINT right_hand
									{
										OFFSET	110.7	-3.89999	13.6
										CHANNELS 3  Xrotation Yrotation Zrotation
										JOINT right_ee
										{
											OFFSET	80.8	-5.10001	12.1
											CHANNELS 3  Xrotation Yrotation Zrotation
											End Site
											{
												OFFSET	1	0	0
											}
										}
									}
								}
							}
						}
					}
				}
			}
		}
	}
	JOINT left_hip
	{
		OFFSET	-82.8	-127.5	0.300001
		CHANNELS 3  Xrotation Yrotation Zrotation
		JOINT left_knee
		{
			OFFSET	-28.2	-396.7	2.2
			CHANNELS 3  Xrotation Yrotation Zrotation
			JOINT left_ankle
			{
				OFFSET	-11.7	-411.3	35.4
				CHANNELS 3  Xrotation Yrotation Zrotation
				JOINT left_toes
				{
					OFFSET	0	-60	-88.6
					CHANNELS 3  Xrotation Yrotation Zrotation
					JOINT left_foot_ee
					{
						OFFSET	-22.5	-16.5	-42.2
						CHANNELS 3  Xrotation Yrotation Zrotation
						End Site
						{
							OFFSET	1	0	0
						}
					}
				}
			}
		}
	}
	JOINT right_hip
	{
		OFFSET	82.8	-127.5	0.300001
		CHANNELS 3  Xrotation Yrotation Zrotation
		JOINT right_knee
		{
			OFFSET	28.2	-396.7	2.2
			CHANNELS 3  Xrotation Yrotation Zrotation
			JOINT right_ankle
			{
				OFFSET	11.7	-411.3	35.4
				CHANNELS 3  Xrotation Yrotation Zrotation
				JOINT right_toes
				{
					OFFSET	0	-60	-88.6
					CHANNELS 3  Xrotation Yrotation Zrotation
					JOINT right_foot_ee
					{
						OFFSET	22.5	-16.5	-42.2
						CHANNELS 3  Xrotation Yrotation Zrotation
						End Site
						{
							OFFSET	1	0	0
						}
					}
				}
			}
		}
	}
}
MOTION
Frames: 15
Frame Time: 0.02
1895.66 706.042 -838.608 -161.835 -56.4702 -165.888 3.91916 0.578974 3.00136 3.92409 0.386907 3.03208 3.94182 -0.0488838 3.05625 3.92905 0.434182 3.02567 -10.1598 -1.87346 -10.537 -9.84691 3.59422 -10.7471 -0.0 0.0 -0.0 1.60538 21.5754 4.79316 -26.5644 -20.3169 60.6366 0.471804 -13.1551 0.0544026 0.839554 0.0288237 -0.10335 0.838368 20.6981 13.3896 -0.0 0.0 -0.0 10.6434 16.1643 -21.0776 -9.6528 17.5358 -56.6567 2.3692 49.5599 -1.09384 75.0425 3.27971 8.30599 -0.0158659 -6.46903 -2.59521 0.0 0.0 0.0 35.4473 -4.44061 -3.48739 -0.5292 0.0214288 0.0783842 -17.347 18.1987 2.64065 19.0264 -0.0 -0.0 -0.0 0.0 -0.0 3.64587 11.6997 3.07233 -21.3178 -0.27765 -3.24075 25.1982 -2.72272 3.36144 32.4659 -0.0 -0.0 0.0 0.0 0.0 
1920.74 705.167 -844.627 -160.255 -56.6177 -165.086 3.95391 0.504249 2.88785 3.95849 0.319546 2.91406 3.97214 -0.0972764 2.9299 3.96035 0.366467 2.90853 -9.80116 -1.09257 -7.8184 -9.62862 3.26634 -7.91074 -0.0 0.0 -0.0 1.78529 22.2237 5.0883 -25.1673 -20.2176 60.9671 0.613379 -16.9015 0.0911323 0.79355 0.0272835 -0.0976763 0.760352 20.8289 12.9589 -0.0 0.0 -0.0 10.9469 17.0359 -21.7175 -10.6526 16.511 -56.3933 2.2841 48.523 -1.02957 74.1395 3.18083 8.24551 -0.286401 -6.61237 -0.88991 0.0 0.0 0.0 37.175 -3.32882 -1.33918 -2.91924 0.10914 0.434668 -21.9189 22.7104 3.39807 21.2198 -0.0 -0.0 -0.0 0.0 -0.0 2.13602 12.8616 4.67412 -19.6631 -0.299495 -2.98781 25.2188 -6.66739 3.35603 33.8195 -0.0 -0.0 0.0 0.0 0.0 
1951.37 706.338 -838.554 -163.571 -56.1086 -168.236 3.85985 0.661769 2.73992 3.86389 0.486148 2.77644 3.88529 0.0831114 2.81742 3.8746 0.526856 2.76901 -9.01965 -0.403115 -6.19141 -8.91065 3.53089 -6.18325 -0.0 0.0 -0.0 1.9525 22.3017 5.32816 -24.7004 -20.4714 60.6511 0.615297 -16.9514 0.0916906 0.311963 0.0108872 -0.0383544 -0.0881265 20.5276 7.74575 -0.0 0.0 -0.0 10.742 19.4328 -21.1108 -13.2883 17.2634 -57.1163 2.02565 45.0935 -0.841062 73.3728 3.09765 8.19296 -0.173384 -5.5791 -1.1952 0.0 0.0 0.0 37.0109 -3.16599 -0.980776 -10.4518 0.287249 1.57607 -21.6275 29.0633 3.46994 25.2421 -0.0 -0.0 -0.0 0.0 -0.0 2.68582 12.1761 5.45118 -24.8381 -0.206928 -3.77625 20.7196 -9.77482 2.82267 34.4243 -0.0 -0.0 0.0 0.0 0.0 
1980.14 712.794 -838.691 -164.256 -54.5999 -169.064 3.95207 0.390299 2.55506 3.95568 0.226978 2.5747 3.96383 -0.141184 2.58082 3.95464 0.268042 2.57075 -9.04496 0.521491 -4.20538 -8.99561 3.88541 -4.01229 -0.0 0.0 -0.0 2.26363 22.1844 5.76106 -23.9811 -19.9965 60.85 0.603479 -16.6439 0.0882751 0.863925 0.0296377 -0.106356 -0.336027 19.8742 6.01073 -0.0 0.0 -0.0 10.9797 20.679 -21.5587 -14.8613 16.868 -57.2387 1.84153 42.3682 -0.713748 72.4119 2.99441 8.12553 0.0479532 -3.34333 -1.71933 0.0 0.0 0.0 36.6606 -3.2982 -0.798744 -14.6253 0.320932 2.21541 -23.2884 29.4486 3.74711 27.8796 -0.0 -0.0 -0.0 0.0 -0.0 1.19688 12.9367 6.80374 -24.4028 -0.217454 -3.71028 16.2508 -9.53576 2.25707 34.5996 -0.0 -0.0 0.0 0.0 0.0 
2004.09 713.199 -831.534 -164.866 -54.9202 -169.329 3.95756 0.306055 2.21731 3.96028 0.164377 2.23228 3.96514 -0.154462 2.23298 3.95823 0.200045 2.22936 -8.95752 1.20489 -2.65567 -8.93919 4.09718 -2.33201 -0.0 0.0 -0.0 2.31756 22.5195 5.85175 -23.0373 -20.1455 60.5813 0.666835 -18.2801 0.107289 1.0456 0.0356654 -0.128777 -0.736429 19.4979 3.46522 -0.0 0.0 -0.0 11.0028 20.1729 -21.6484 -16.2833 16.6223 -57.6887 1.67075 39.6092 -0.601694 71.737 2.92257 8.07714 0.10855 -2.38993 -1.72385 0.0 0.0 0.0 35.5711 -2.82395 -0.42329 -17.1503 0.318679 2.60277 -24.4724 32.1561 4.01459 29.9018 -0.0 -0.0 -0.0 0.0 -0.0 2.16626 13.5507 6.73151 -27.8393 -0.120742 -4.22872 13.7834 -12.1356 1.93816 35.0651 -0.0 -0.0 0.0 0.0 0.0 
2035.57 719.23 -817.929 -165.398 -54.4166 -169.668 3.82395 0.34094 2.13064 3.82646 0.204703 2.148 3.8328 -0.107516 2.15505 3.8264 0.234104 2.145 -10.0092 2.48366 -0.621419 -10.0158 5.09491 0.0123366 -0.0 0.0 -0.0 1.08844 21.9728 4.08778 -20.5764 -21.4387 61.8678 0.750325 -20.3895 0.134936 1.67613 0.0560337 -0.206737 -0.936946 19.3372 2.19949 -0.0 0.0 -0.0 10.9481 21.2559 -21.4424 -18.791 17.4796 -59.4628 1.51369 36.8615 -0.504465 70.5659 2.7993 7.99119 0.348563 -1.54314 -2.96786 0.0 0.0 0.0 34.0124 -3.26207 -0.50881 -19.3568 0.302736 2.94093 -22.9619 28.423 3.67006 31.1357 -0.0 -0.0 -0.0 0.0 -0.0 2.72576 13.0584 6.8096 -29.884 -0.0484917 -4.53419 10.8831 -13.0857 1.54865 35.9 -0.0 -0.0 0.0 0.0 0.0 
2060.46 721.259 -815.017 -166.428 -54.4944 -170.004 3.81144 0.199992 2.0722 3.81382 0.0677563 2.08072 3.81501 -0.234043 2.06863 3.80905 0.0955228 2.07963 -10.5491 2.86973 1.38035 -10.5517 4.49203 2.07848 -0.0 0.0 -0.0 0.434288 21.5057 3.1181 -18.4362 -21.8555 62.9863 0.812794 -21.9313 0.157488 2.02109 0.0668134 -0.24948 -1.14845 19.2415 0.894462 -0.0 0.0 -0.0 11.0154 20.9003 -21.6226 -19.9479 16.7249 -60.3928 1.3957 34.6576 -0.435501 70.1871 2.75981 7.96286 0.419822 -0.838055 -3.15159 0.0 0.0 0.0 32.5469 -2.93731 -0.421735 -21.0106 0.282257 3.19385 -24.7131 28.3584 3.94889 31.6295 -0.0 -0.0 -0.0 0.0 -0.0 3.51871 12.6921 6.49595 -31.5023 0.0164032 -4.77406 9.73566 -13.7278 1.39227 36.349 -0.0 -0.0 0.0 0.0 0.0 
2080.23 727.413 -810.948 -166.81 -53.9811 -170.228 4.01019 0.0994342 1.7763 4.01194 -0.0137796 1.77903 4.01048 -0.265076 1.75923 4.00616 0.0160419 1.77901 -10.8129 3.34974 2.5021 -10.8048 4.66578 3.29958 -0.0 0.0 -0.0 0.272423 20.4013 2.77333 -16.0703 -22.6253 63.9492 0.86765 -23.2582 0.178566 2.33285 0.0763339 -0.288163 -1.27641 19.1753 0.100439 -0.0 0.0 -0.0 10.9151 21.2308 -21.3697 -21.9153 16.6707 -61.1353 1.28783 32.5344 -0.375801 69.6656 2.70574 7.92342 0.500812 -0.496949 -3.55163 0.0 0.0 0.0 31.3391 -2.95074 -0.208492 -21.7959 0.269978 3.31372 -24.4462 27.2071 3.87905 32.1345 -0.0 -0.0 -0.0 0.0 -0.0 4.4825 12.7433 6.55677 -32.7229 0.0698233 -4.95373 8.51789 -14.1942 1.22399 36.7154 -0.0 -0.0 0.0 0.0 0.0 
2108.26 733.731 -813.264 -166.835 -55.7793 -171.143 4.15646 -0.141609 1.72853 4.15808 -0.251296 1.71602 4.14953 -0.487357 1.66445 4.14573 -0.218413 1.72051 -10.7965 2.67984 3.25371 -10.7707 2.90044 3.85181 -0.0 0.0 -0.0 0.538139 18.3771 2.96326 -14.4035 -24.4781 65.3528 0.862512 -23.135 0.176542 3.20308 0.101792 -0.396407 -1.43453 20.8328 -0.0902438 -0.0 0.0 -0.0 10.2428 19.0043 -20.0164 -23.5579 17.2942 -61.6314 1.17884 30.2822 -0.318992 68.0526 2.54085 7.79838 0.439896 0.191775 -2.85942 0.0 0.0 0.0 26.2696 -3.50721 2.62669 -15.5165 0.322086 2.35214 -20.0273 25.9206 3.15209 34.4087 -0.0 -0.0 -0.0 0.0 -0.0 9.84774 21.319 4.5998 -43.6316 0.713826 -6.49904 4.98652 -22.3613 0.742799 37.8234 -0.0 -0.0 0.0 0.0 0.0 
2131.26 740.039 -811.23 -167.333 -53.6685 -172.19 4.34469 0.265207 1.62353 4.34614 0.161375 1.63711 4.34977 -0.0618037 1.64388 4.34605 0.198557 1.63302 -12.4225 3.45709 2.27253 -12.4232 5.11672 3.17209 -0.0 0.0 -0.0 0.427026 17.5077 2.70689 -13.8634 -28.4774 64.5297 0.862798 -23.1419 0.176654 2.75476 0.0888819 -0.340595 -1.45888 21.45 0.0475176 -0.0 0.0 -0.0 9.11077 20.1845 -17.4074 -24.5999 16.6192 -64.4279 1.10291 28.6492 -0.281642 67.5848 2.49369 7.76125 0.881905 0.813145 -5.56733 0.0 0.0 0.0 23.4718 -4.73202 3.78518 -13.0846 0.313922 1.97912 -16.2762 27.6669 2.58197 34.0135 -0.0 -0.0 -0.0 0.0 -0.0 13.0226 25.2882 4.21331 -47.4762 1.00954 -7.0113 2.63755 -23.0604 0.396511 38.9683 -0.0 -0.0 0.0 0.0 0.0 
2153.22 745.241 -806.764 -167.031 -53.6168 -171.815 4.35257 0.113083 1.65467 4.3541 0.00757764 1.65852 4.35328 -0.217046 1.64427 4.34951 0.0453231 1.65791 -12.139 1.99432 4.47326 -12.0832 0.910821 4.85837 -0.0 0.0 -0.0 0.480242 17.1905 2.75666 -12.6698 -26.0891 64.14 0.978798 -25.8668 0.22478 2.90647 0.0932998 -0.35947 -1.8633 18.0078 -3.97096 -0.0 0.0 -0.0 9.22212 19.0885 -17.7338 -25.3445 16.2091 -64.984 0.94612 25.1112 -0.210717 66.4362 2.3792 7.66848 0.700233 0.00504039 -4.67954 0.0 0.0 0.0 21.5436 -4.68151 4.35096 -10.9274 0.293438 1.64878 -20.9723 25.1186 3.28795 33.87 -0.0 -0.0 -0.0 0.0 -0.0 16.7014 24.2125 3.60375 -51.6393 1.36791 -7.54265 0.956385 -25.9477 0.146469 39.9912 -0.0 -0.0 0.0 0.0 0.0 
2175.97 746.22 -796.649 -167.773 -52.0339 -171.977 4.71816 0.301482 1.47076 4.71934 0.207294 1.48696 4.7238 0.0138478 1.50127 4.72074 0.250745 1.48025 -12.4928 1.81436 0.838668 -12.4958 2.9123 1.32741 -0.0 0.0 -0.0 0.920269 16.1633 3.34404 -11.5038 -25.5551 62.8405 0.865522 -23.2072 0.177726 1.33914 0.0452545 -0.165043 -2.13206 15.2667 -6.96041 -0.0 0.0 -0.0 8.39651 16.4863 -16.0796 -26.2177 18.17 -66.7879 0.785803 21.2691 -0.147552 62.9959 2.04779 7.37725 0.653239 -5.23579 -6.48854 0.0 0.0 0.0 17.8812 -1.06345 3.22707 -8.44015 0.254404 1.26916 -8.03615 21.3153 1.22445 35.8908 -0.0 -0.0 -0.0 0.0 -0.0 19.258 18.0953 5.69296 -53.5298 1.54328 -7.77519 -3.76147 -22.6369 -0.572209 39.1746 -0.0 -0.0 0.0 0.0 0.0 
2196.25 749.867 -792.793 -168.926 -51.8469 -172.705 4.8678 0.260596 1.41419 4.86889 0.170089 1.4279 4.87222 -0.0117183 1.43795 4.8694 0.215503 1.42176 -12.6406 0.662682 0.772942 -12.6392 0.769362 0.932744 -0.0 0.0 -0.0 2.24524 15.1533 5.37204 -11.6903 -25.3722 60.1483 0.909676 -24.2573 0.195497 1.11979 0.0381066 -0.137938 -2.37178 15.0851 -8.54939 -0.0 0.0 -0.0 8.09402 15.4589 -15.4777 -29.0229 18.8742 -67.6407 0.646303 17.7531 -0.100938 61.4157 1.90157 7.23696 0.701655 -5.75109 -7.01298 0.0 0.0 0.0 15.0073 -3.29288 3.86767 -6.71899 0.21776 1.00758 -5.78867 19.8672 0.874197 33.5905 -0.0 -0.0 -0.0 0.0 -0.0 23.3385 18.9697 4.73509 -56.0138 1.78527 -8.07185 -9.40111 -22.2524 -1.44065 39.4287 -0.0 -0.0 0.0 0.0 0.0 
2223.14 751.865 -789.034 -170.798 -50.8126 -173.611 4.91463 0.280993 1.21431 4.91542 0.20316 1.22973 4.91911 0.0471605 1.2455 4.91703 0.243258 1.22243 -13.0573 0.196669 -0.985102 -13.0551 0.991471 -0.881942 -0.0 0.0 -0.0 3.01649 14.4433 6.58259 -12.4212 -25.022 58.0293 0.904562 -24.1365 0.193401 0.231399 0.0080957 -0.0284438 -2.42425 11.9313 -10.487 -0.0 0.0 -0.0 7.1907 15.4335 -13.5177 -30.5674 19.8746 -68.8973 0.64416 17.6979 -0.100286 59.6051 1.7389 7.07138 0.610325 -8.73125 -7.58493 0.0 0.0 0.0 12.7248 -1.35753 3.88028 -8.39669 0.253575 1.26254 2.17821 19.5532 -0.323226 34.7345 -0.0 -0.0 -0.0 0.0 -0.0 26.1647 17.5505 4.73492 -57.7062 1.95746 -8.26791 -16.6074 -21.7718 -2.55844 38.4327 -0.0 -0.0 0.0 0.0 0.0 
2242.76 752.329 -790.66 -170.646 -50.3887 -173.599 5.04532 0.28187 1.13393 5.04602 0.209149 1.14957 5.0496 0.0658245 1.16658 5.04779 0.249226 1.14155 -13.6275 -0.0777069 -1.86325 -13.6184 1.00202 -1.79702 -0.0 0.0 -0.0 3.66851 13.2246 7.61457 -11.6973 -25.4305 56.8917 0.958007 -25.3871 0.215788 -0.46276 -0.0165347 0.0567853 -2.56557 11.1399 -11.8074 -0.0 0.0 -0.0 6.38903 15.3351 -11.7949 -31.5175 20.4069 -69.4787 0.603011 16.6317 -0.0881411 58.4092 1.63437 6.95925 0.57409 -10.3674 -7.98426 0.0 0.0 0.0 11.5423 -0.169254 4.62453 -8.00895 0.245962 1.20353 8.18937 17.2247 -1.18646 35.3918 -0.0 -0.0 -0.0 0.0 -0.0 28.4716 17.3741 4.40612 -58.2433 2.01331 -8.32906 -19.8799 -21.7253 -3.06738 37.91 -0.0 -0.0 0.0 0.0 0.0 
